HIERARCHY
ROOT base
{
	OFFSET 0.0 0.0 0.0
	CHANNELS 6 Xposition Yposition Zposition Zrotation Yrotation Xrotation
	JOINT root
	{
		OFFSET 0 0 0
		CHANNELS 6 Xposition Yposition Zposition Zrotation Yrotation Xrotation
		JOINT chest
		{
			OFFSET 0 4.72302 0
			CHANNELS 3 Zrotation Yrotation Xrotation
			JOINT neck
			{
				OFFSET 0 4.47788 0
				CHANNELS 3 Zrotation Yrotation Xrotation
				End Site
				{
					OFFSET 0.0 0.0 0.0
				}
			}
			JOINT right_shoulder
			{
				OFFSET -0.481 4.87 3.6622
				CHANNELS 3 Zrotation Yrotation Xrotation
				JOINT right_elbow
				{
					OFFSET 0 -5.49576 0
					CHANNELS 3 Zrotation Yrotation Xrotation
					JOINT right_wrist
					{
						OFFSET 0 -5.17894 0
						CHANNELS 3 Zrotation Yrotation Xrotation
						End Site
						{
							OFFSET 0.0 0.0 0.0
						}
					}
				}
			}
			JOINT left_shoulder
			{
				OFFSET -0.481 4.87 -3.6622
				CHANNELS 3 Zrotation Yrotation Xrotation
				JOINT left_elbow
				{
					OFFSET 0 -5.49576 0
					CHANNELS 3 Zrotation Yrotation Xrotation
					JOINT left_wrist
					{
						OFFSET 0 -5.17894 0
						CHANNELS 3 Zrotation Yrotation Xrotation
						End Site
						{
							OFFSET 0.0 0.0 0.0
						}
					}
				}
			}
		}
		JOINT right_hip
		{
			OFFSET 0 0 1.69774
			CHANNELS 3 Zrotation Yrotation Xrotation
			JOINT right_knee
			{
				OFFSET 0 -8.43092 0
				CHANNELS 3 Zrotation Yrotation Xrotation
				JOINT right_ankle
				{
					OFFSET 0 -8.1974 0
					CHANNELS 3 Zrotation Yrotation Xrotation
					End Site
					{
						OFFSET 0.0 0.0 0.0
					}
				}
			}
		}
		JOINT left_hip
		{
			OFFSET 0 0 -1.69774
			CHANNELS 3 Zrotation Yrotation Xrotation
			JOINT left_knee
			{
				OFFSET 0 -8.43092 0
				CHANNELS 3 Zrotation Yrotation Xrotation
				JOINT left_ankle
				{
					OFFSET 0 -8.1974 0
					CHANNELS 3 Zrotation Yrotation Xrotation
					End Site
					{
						OFFSET 0.0 0.0 0.0
					}
				}
			}
		}
	}
	JOINT red_arrow
	{
		OFFSET 0 0 0
		CHANNELS 3 Zrotation Yrotation Xrotation
		End Site
		{
			OFFSET 0.0 0.0 0.0
		}
	}
	JOINT blue_arrow
	{
		OFFSET 0 0 0
		CHANNELS 3 Zrotation Yrotation Xrotation
		End Site
		{
			OFFSET 0.0 0.0 0.0
		}
	}
}
MOTION
Frames: 13
Frame Time: 0.0333333333333333
706.177508187294 0 8.76282336488366 0 -5.93860413551887 0 0 15.3149862647057 0 -21.9892525583405 9.72487137645104 -0.219369542137715 -7.81563349617163 0.747859402469821 -4.39103449209182 -15.1863685779124 -6.88722582701814 -16.2735015682913 -2.75708762578149 14.3083220207786 -26.4577758598911 74.9560532348507 0 0 0 0 0 -17.260169478091 1.12235602661984 16.0494872065429 73.3654592715056 0 0 0 0 0 14.6150262715492 -3.9150916355377 -3.65728567958472 -103.70188790409 0 0 -3.09097435732316 -1.21737663822695 2.80771107786537 56.3124916008077 -0.527124895486808 -10.8203536553719 -57.7439765264186 0 0 23.5845434306889 5.52609911228391 5.21231330114057 0 0 0 0 0 0
708.121331828833 0 8.74235640615225 0 -5.19641194876344 0 0 15.5674605965614 0 -25.9842701434058 12.7250521668865 1.18219337719885 -3.77945323947098 -0.541273893351622 -4.38520734381789 -12.3859017831637 -3.45404187945289 -12.1074912153899 -16.5750994781784 20.527121852992 -26.9825278682276 63.8826636844809 0 0 0 0 0 5.20271756888215 -8.16560761950863 17.9421780941624 71.6938046230909 0 0 0 0 0 36.4678254417142 -0.409648003198481 -10.727190292414 -115.4673532023 0 0 2.59508582600021 -5.67355728359933 13.124028951662 50.2553263750667 1.34267682873048 -12.6162153065708 -53.7237169356653 0 0 28.8948933154828 0.463449220853067 5.41145602664384 0 0 0 0 0 0
710.210021173954 0 8.83604510873556 0 -4.43274824289481 0 0 16.1388274908066 0 -28.6286690263191 12.7979578255296 1.57410770443863 -1.05790350629255 -1.50488065852248 -3.6663092854148 -8.14746736934686 2.1169662766521 -7.01354988442545 -28.5871920704652 24.721345555546 -29.3496292198744 57.0761308746585 0 0 0 0 0 26.7209399794897 -21.2327573379647 27.4774869899218 74.7306501620511 0 0 0 0 0 59.088104725171 6.11626718528267 -12.9384557014364 -118.142191885061 0 0 6.56140116365269 -12.2223780490643 27.4447498137358 38.6437558650971 0.365278284952463 -11.7989421561902 -40.3429938610168 0 0 29.6748092910661 -2.13481867084508 4.18663308713528 0 0 0 0 0 0
712.596244007349 0 8.93784769773483 0 -3.9031735941547 0 0 16.7432401776314 0 -29.8106194087893 8.7526032067569 0.997380086386012 0.317085058780899 -1.00759365360768 -2.11839800508102 -3.69249413410665 5.649332374675 -2.30296883879339 -43.5512022859355 24.790622787219 -37.5254205659519 54.1960620828121 0 0 0 0 0 41.0663356325195 -30.7762563881905 38.3746646910442 85.8485998665661 0 0 0 0 0 76.2474514738922 8.26889632290185 -9.32767104203738 -109.225093055664 0 0 6.8816667296404 -16.0963100221895 38.3388327831957 24.8303239272337 -0.993933510077638 -8.72354324583889 -24.9947169751829 0 0 20.5936567008218 -0.274501600493126 3.65529353862224 0 0 0 0 0 0
714.994258797169 0 8.98322213664651 0 -3.5879972643112 0 0 17.3588638305664 0 -31.76545845607 5.09649258332979 1.21692733690454 1.14839511034067 -0.77094329366028 -0.87268930381787 -1.03730475452318 6.08627087345323 0.631387108315799 -54.6626428506848 17.8050168374544 -43.3237883539952 53.1823561420501 0 0 0 0 0 45.6940465380328 -33.3623955950996 44.1028905905311 96.908977906567 0 0 0 0 0 85.2358652916086 6.29805426080944 -6.80783986379953 -91.1839611555865 0 0 7.46055001432551 -17.0003158670196 40.1246499742391 17.523903048282 -1.41258831851644 -7.39772314966964 -17.4983897007026 0 0 -3.60898803273236 1.38107304209319 3.6685147005843 0 0 0 0 0 0
717.478316712379 0 9.09969697445631 0 -3.44459867069422 0 0 17.8565959453583 0 -32.7409408455671 2.29221068633738 1.81517330474584 1.09390405962535 -0.73081756225045 -0.57322582814033 -0.413823038576639 5.7717974700831 2.94921581448177 -57.6852700311993 9.26453938781475 -42.8416259933194 53.9250265161677 0 0 0 0 0 44.1903439134897 -31.1465791025633 47.0233267998991 104.257011528883 0 0 0 0 0 85.5597016399421 2.21408316577668 -5.80922820135872 -67.0514070065032 0 0 7.80512221289147 -16.4402895888957 36.4078028728907 9.52851658764607 -0.115932237893432 -5.86943992310101 -8.59664172146542 0 0 -25.5075040072675 -2.43102479107793 -0.701791571212803 0 0 0 0 0 0
720.03432457447 0 9.24859834015369 0 -3.35715967929463 0 0 18.0565496444702 0 -31.6813033066213 1.41388132150288 2.09896704080606 -1.70043127592097 -2.07962659935429 0.291455178312128 1.27543312620382 6.75449861579829 5.97644699627786 -59.0504427071554 0.659484637983377 -42.2061077718438 58.1291172333372 0 0 0 0 0 40.1759200933847 -28.4108296647522 47.9844674005634 112.514717065617 0 0 0 0 0 82.409903253707 -2.13514132841857 -6.01061607274147 -47.0689167782547 0 0 7.82551415080108 -13.7708186221642 29.2722356004084 1.48751198950362 2.83402111467388 -4.31475546534969 -5.47545914106798 0 0 -32.6511310837821 -5.72619461496765 -4.34640687338616 0 0 0 0 0 0
722.691684758663 0 9.41741402894258 0 -3.30979598350293 0 0 17.9905461788177 0 -29.3715517217817 0.784248974484858 2.42496533243518 -4.42607815666256 -3.21283940392701 0.920785177304499 2.71388494304086 7.55906364366723 8.73088819670003 -59.5970686540022 -6.2439281570382 -41.4538833909266 63.7573502037787 0 0 0 0 0 35.4051291304197 -25.2816900415333 46.9170351668055 117.323033637523 0 0 0 0 0 77.2334969810036 -5.83733342990431 -5.69602717329358 -32.452274388387 0 0 6.98736823242685 -10.5839501108561 22.0905305367784 -4.97131140138715 5.87107154093197 -3.06013062038531 -9.4349757250982 0 0 -34.1707337706683 -7.35918932884413 -7.26212945644783 0 0 0 0 0 0
725.424891203642 0 9.58965511322021 0 -3.278634631577 0 0 17.6873337507248 0 -25.8197090817155 0.532962777721295 2.57259559703784 -7.37390207985517 -4.1021321272111 1.85214274561052 5.21775118652561 8.58718680913071 11.1779390277657 -59.2768516477263 -11.7969562669212 -41.0976981971528 69.5771563200606 0 0 0 0 0 30.8524556810335 -22.4357804330062 44.1588130705056 118.190658907411 0 0 0 0 0 71.2238740219876 -8.48110573753067 -5.49638397374173 -26.6310578380415 0 0 5.34448234020979 -7.09829744794513 15.8008448396516 -8.27153902413407 6.639515855909 -1.77465591542168 -23.490352442562 0 0 -31.8224511570572 -7.44006395928845 -9.35675532072675 0 0 0 0 0 0
728.145517390966 0 9.77405498325825 0 -3.24612545684307 0 0 17.1863132953644 0 -21.9921419757734 0.572732496884426 2.50894963229885 -10.4093996472896 -4.62210942606277 2.94119150533914 8.16018330044792 9.05623374495418 12.9357820123538 -57.4312767300739 -14.5153283051595 -39.8157962261848 73.3207898343338 0 0 0 0 0 27.104581332764 -19.6320908755386 39.9747501503419 114.687099712275 0 0 0 0 0 65.80284699403 -10.2743248254555 -5.46512702080594 -28.5386955222802 0 0 3.62656297957269 -4.26510129078834 11.1040238758297 -8.59876985780359 5.43592872204055 -0.754687672524057 -44.0864668658445 0 0 -28.6413386781266 -7.10968061566411 -11.037770856598 0 0 0 0 0 0
730.804018598795 0 10.0020084507763 0 -3.19441499684981 0 0 16.5363023281097 0 -18.4781739924422 0.931854660466554 2.17927989901359 -13.7896278894603 -4.71816907311228 3.94289847738547 10.5093763644715 8.75786551029534 13.5378770336576 -52.6840651809361 -13.7646099599225 -35.6289278063349 74.9360817617176 0 0 0 0 0 23.8122407624758 -15.938521794939 34.1630144184658 108.211725209266 0 0 0 0 0 59.9404072956123 -10.450150272885 -4.97439972753596 -33.6585301920409 0 0 1.82780694868583 -1.81456421967039 7.59881524795774 -6.64267235157076 3.47138803847435 -0.0575258709829772 -66.5864828598896 0 0 -25.1970093888944 -6.49209006670664 -11.8522245493986 0 0 0 0 0 0
733.310564655065 0 10.2769914612174 0 -3.20583690810513 0 0 15.8419932126999 0 -16.3735159514602 -0.208215161780619 1.57854997684629 -16.5723981915774 -2.94990907585269 4.09045206250843 11.2525612154225 8.04196816523977 13.1980987857475 -42.5411595743325 -9.06933077402166 -28.3419509011657 74.8336494147349 0 0 0 0 0 20.09849777425 -11.5077638396787 27.1862456269367 99.8734097799468 0 0 0 0 0 54.5115152830663 -8.53995409857818 -2.04436470551363 -41.4810877918485 0 0 4.19752077980851 -0.77339048111324 -5.40100710919528 -0.748347900965726 3.21535938317488 0.288388866262221 -89.3954146497161 0 0 -21.1097054789367 -5.28723646220024 -11.2122458105934 0 0 0 0 0 0
735.304945248365 0 10.5930926438421 0 -3.65413149219154 0 0 15.7536155581474 0 -20.5643986713964 -7.98206683166304 -0.563208789440075 -11.3177506974315 0.916868418407485 3.16885102821024 5.08949406252126 6.65591498048289 12.8091799014355 -22.8043408329795 3.40029837708855 -24.9774320474097 74.9117253071373 0 0 0 0 0 7.54995694186702 -10.0915302977447 20.3560844450951 83.7421968472908 0 0 0 0 0 54.37584151298 -7.0488684757866 5.37649100403426 -48.5718896598323 0 0 14.2076816453162 1.0916500943388 -5.07153900012442 17.1146850564496 6.00454924734834 3.77222520351319 -109.008985870325 0 0 -13.484865881083 -2.739327914303 -7.71532090753114 0 0 0 0 0 0
